<svg viewBox="0 0 200 200" xmlns="http://www.w3.org/2000/svg">
  <!-- Hands -->
  <path d="M50 120 C40 110, 40 100, 50 90 C60 80, 70 85, 75 95 L85 110 C90 120, 85 130, 75 125 L65 120 Z" fill="#7dd3fc" opacity="0.9"/>
  <path d="M150 120 C160 110, 160 100, 150 90 C140 80, 130 85, 125 95 L115 110 C110 120, 115 130, 125 125 L135 120 Z" fill="#7dd3fc" opacity="0.9"/>
  
  <!-- Plant stem -->
  <path d="M100 140 L100 80" stroke="#22d3ee" stroke-width="4" fill="none"/>
  
  <!-- Leaves -->
  <ellipse cx="85" cy="90" rx="12" ry="8" fill="#06b6d4" transform="rotate(-30 85 90)"/>
  <ellipse cx="115" cy="90" rx="12" ry="8" fill="#06b6d4" transform="rotate(30 115 90)"/>
  <ellipse cx="90" cy="75" rx="10" ry="6" fill="#0891b2" transform="rotate(-45 90 75)"/>
  <ellipse cx="110" cy="75" rx="10" ry="6" fill="#0891b2" transform="rotate(45 110 75)"/>
  <ellipse cx="100" cy="65" rx="8" ry="5" fill="#0e7490"/>
</svg>